<?xml version="1.0" encoding="UTF-8" standalone="no"?>
<!-- Created with Inkscape (http://www.inkscape.org/) -->

<svg
   xmlns:dc="http://purl.org/dc/elements/1.1/"
   xmlns:cc="http://creativecommons.org/ns#"
   xmlns:rdf="http://www.w3.org/1999/02/22-rdf-syntax-ns#"
   xmlns:svg="http://www.w3.org/2000/svg"
   xmlns="http://www.w3.org/2000/svg"
   xmlns:sodipodi="http://sodipodi.sourceforge.net/DTD/sodipodi-0.dtd"
   xmlns:inkscape="http://www.inkscape.org/namespaces/inkscape"
   width="325"
   height="65"
   viewBox="0 0 325 65.000001"
   id="svg5930"
   version="1.1"
   inkscape:version="0.91 r13725"
   sodipodi:docname="explosion_spr.svg">
  <defs
     id="defs5932" />
  <sodipodi:namedview
     id="base"
     pagecolor="#ffffff"
     bordercolor="#666666"
     borderopacity="1.0"
     inkscape:pageopacity="0.0"
     inkscape:pageshadow="2"
     inkscape:zoom="2.6752207"
     inkscape:cx="154.43582"
     inkscape:cy="36.268871"
     inkscape:document-units="px"
     inkscape:current-layer="layer1"
     showgrid="true"
     units="px"
     inkscape:window-width="1301"
     inkscape:window-height="744"
     inkscape:window-x="65"
     inkscape:window-y="24"
     inkscape:window-maximized="1"
     showguides="true">
    <inkscape:grid
       type="xygrid"
       id="grid5980"
       empspacing="65" />
  </sodipodi:namedview>
  <metadata
     id="metadata5935">
    <rdf:RDF>
      <cc:Work
         rdf:about="">
        <dc:format>image/svg+xml</dc:format>
        <dc:type
           rdf:resource="http://purl.org/dc/dcmitype/StillImage" />
        <dc:title></dc:title>
      </cc:Work>
    </rdf:RDF>
  </metadata>
  <g
     inkscape:label="Layer 1"
     inkscape:groupmode="layer"
     id="layer1"
     transform="translate(0,-987.36218)">
    <path
       style="fill:#ffffff;stroke:none"
       inkscape:connector-curvature="0"
       id="path4964"
       d="m 43.566106,1011.9957 -3.6,4.1 0.75,1.65 12,0.5 q 9.45,0.7 9.25,2.4 0.15,1.65 -9.25,2.4 l -12,0.5 -0.75,1.65 3.6,4 q 4.5,5.1 3.3,6.05 -0.85,1.1 -6.05,-3.3 l -3.95,-3.6 -1.7,0.75 -0.5,12 q -0.7,9.45 -2.4,9.25 -1.65,0.15 -2.4,-9.25 -0.4,-5.3 -0.5,-12 -0.9,-0.3 -1.65,-0.75 l -4.05,3.55 q -5.1,4.5 -6,3.35 -1.15,-0.9 3.3,-6.05 l 3.6,-4 -0.75,-1.6 -11.999999,-0.55 q -9.4500001,-0.75 -9.2500001,-2.4 -0.2,-1.7 9.2500001,-2.4 l 11.999999,-0.5 0.8,-1.65 -3.65,-4.05 q -4.45,-5.2 -3.35,-6.05 0.95,-1.15 6.05,3.35 l 4.1,3.6 q 0.75,-0.45 1.6,-0.75 l 0.5,-12 q 0.75,-9.45001 2.4,-9.25001 1.7,-0.2 2.4,9.25001 l 0.5,12 q 0.85,0.3 1.65,0.75 2.15,-2 4.05,-3.6 5.15,-4.5 6.05,-3.35 1.15,0.9 -3.35,6" />
    <path
       style="fill:#ff7419;stroke:none"
       inkscape:connector-curvature="0"
       id="path4966"
       d="m 79.070552,1023.9218 q -8.15,-2.15 -8.1,-5.3 -0.1,-3.1 8.1,-5.3 l 2.65,-0.65 q -2.1,-6.8 1.2,-10.1 3.25,-3.25001 9.999996,-1.15 l 0.65,-2.60001 q 2.25,-8.29994 5.4,-8.24994 3.150002,0 5.300002,8.24994 l 0.6,2.60001 q 6.80001,-2.10001 10.05001,1.15 3.3,3.3 1.15,10.05 l 2.7,0.7 q 8.2,2.2 8.25,5.25 -0.05,3.15 -8.25,5.35 l -2.7,0.7 q 2.15,6.75 -1.1,9.95 -3.25,3.3 -10.10001,1.15 l -0.6,2.7 q -2.2,8.2 -5.300002,8.25 -3.2,-0.05 -5.4,-8.25 l -0.55,-2.7 q -6.799996,2.2 -10.099996,-1.1 -3.3,-3.25 -1.15,-10 l -2.7,-0.7 m 6.65,-12.95 1.1,1.8 q -4.6,2.35 -4.55,5.85 -0.1,3.3 4.6,5.8 l -1.05,1.7 q -3.15,5.5 -1.55,7.1 1.65,1.65 7.099996,-1.5 l 1.75,-1.1 q 2.45,4.7 5.85,4.75 3.450002,-0.05 5.850002,-4.7 l 1.7,1.05 q 5.50001,3.25 7.15001,1.5 1.65,-1.55 -1.55,-7.05 l -1.05001,-1.75 q 4.70001,-2.45 4.65001,-5.85 0,-3.4 -4.65001,-5.85 l 1.05001,-1.75 q 3.2,-5.45 1.6,-7.05 -1.7,-1.65 -7.20001,1.45 l -1.75,1.05 q -2.45,-4.65 -5.850002,-4.65 -3.4,0 -5.85,4.65 l -1.75,-0.95 q -5.399996,-3.2 -7.049996,-1.65 -1.6,1.7 1.45,7.15" />
    <path
       style="fill:#e76916;stroke:none"
       inkscape:connector-curvature="0"
       id="path4968"
       d="m 85.720552,1010.9718 q -3.05,-5.45 -1.45,-7.15 1.65,-1.55 7.049996,1.65 l 1.75,0.95 q 2.45,-4.65 5.85,-4.65 3.400002,0 5.850002,4.65 l 1.75,-1.05 q 5.50001,-3.1 7.20001,-1.45 1.6,1.6 -1.6,7.05 l -1.05001,1.75 q 4.65001,2.45 4.65001,5.85 0.05,3.4 -4.65001,5.85 l 1.05001,1.75 q 3.2,5.5 1.55,7.05 -1.65,1.75 -7.15001,-1.5 l -1.7,-1.05 q -2.4,4.65 -5.850002,4.7 -3.4,-0.05 -5.85,-4.75 l -1.75,1.1 q -5.449996,3.15 -7.099996,1.5 -1.6,-1.6 1.55,-7.1 l 1.05,-1.7 q -4.7,-2.5 -4.6,-5.8 -0.05,-3.5 4.55,-5.85 l -1.1,-1.8" />
    <path
       style="fill:#ffcc00;stroke:none"
       inkscape:connector-curvature="0"
       id="path4970"
       d="m 89.470548,1010.5718 0.2,0.4 -0.15,0.5 q -0.5,1.55 0.2,3.95 0.45,1.5 1.2,2.85 l 0.05,0.3 -0.05,0.45 q -0.75,1.35 -1.1,2.7 -0.75,2.5 -0.2,4.05 l 0.05,0.5 -0.25,0.35 -1.799996,2.2 q -3.5,4.35 -3.4,4.5 l 4.5,-3.35 0.05,-0.05 2.2,-1.75 0.35,-0.25 0.45,0.05 4.05,-0.25 q 1.4,-0.3 2.75,-1 0.2,-0.15 0.4,-0.15 0.2,0 0.4,0.15 l 2.649998,1 0.1,0.05 4.05,0.2 0.4,0 0.5,0.2 2.1,1.8 4.50001,3.35 -3.40001,-4.45 -1.8,-2.2 -0.2,-0.4 0,-0.4 q 0.6,-1.7 -0.15,-4.15 l -1.05,-2.65 -0.15,-0.45 0.1,-0.35 1.15,-2.9 0,0.1 q 0.7,-2.5 0.15,-4 l -0.05,-0.5 0.15,-0.35 1.85,-2.25 3.40001,-4.5 q -0.35,0.05 -4.50001,3.4 l -2.1,1.85 -0.45,0.1 -0.4,0 -4.1,0.2 q -1.4,0.4 -2.749998,1.1 l -0.45,0.1 -0.4,-0.1 q -1.3,-0.7 -2.75,-1.1 l -4.05,-0.2 -0.4,0.05 -0.4,-0.15 -2.15,-1.85 -4.549996,-3.35 q -0.1,0.2 3.45,4.45 l 1.799996,2.2 m 23.750008,19.65 q 4.85,5.9 4,6.7 -0.8,0.8 -6.75001,-4 l -2.6,-2.15 -5.5,-0.25 q -1.75,-0.45 -3.449998,-1.4 -1.65,1 -3.35,1.4 l -5.55,0.2 -2.599996,2.2 q -5.9,4.8 -6.75,3.95 -0.8,-0.8 3.95,-6.65 l 2.2,-2.7 q -0.75,-2.15 0.25,-5.4 0.5,-1.8 1.35,-3.45 -0.9,-1.75 -1.45,-3.55 -0.9,-3.25 -0.15,-5.4 l -2.2,-2.6 q -4.75,-5.95 -3.95,-6.75 0.85,-0.80001 6.75,3.95 l 2.549996,2.2 5.4,0.2 q 1.85,0.4 3.6,1.35 1.749998,-0.9 3.499998,-1.35 l 5.4,-0.25 2.65,-2.15 q 5.90001,-4.75001 6.70001,-3.95 0.85,0.85 -4,6.75 l -2.20001,2.5 q 0.85001,2.25 -0.05,5.45 -0.55,1.85 -1.55,3.55 0.95,1.65 1.4,3.5 1.00001,3.2 0.25,5.45 l 2.15001,2.65" />
    <path
       style="fill:#f0c000;stroke:none"
       inkscape:connector-curvature="0"
       id="path4972"
       d="m 89.470548,1010.5718 -1.799996,-2.2 q -3.55,-4.25 -3.45,-4.45 l 4.549996,3.35 2.15,1.85 0.4,0.15 0.4,-0.05 4.05,0.2 q 1.45,0.4 2.75,1.1 l 0.4,0.1 0.45,-0.1 q 1.350002,-0.7 2.750002,-1.1 l 4.1,-0.2 0.4,0 0.45,-0.1 2.1,-1.85 q 4.15001,-3.35 4.50001,-3.4 l -3.40001,4.5 -1.85,2.25 -0.15,0.35 0.05,0.5 q 0.55,1.5 -0.15,4 l 0,-0.1 -1.15,2.9 -0.1,0.35 0.15,0.45 1.05,2.65 q 0.75,2.45 0.15,4.15 l 0,0.4 0.2,0.4 1.8,2.2 3.40001,4.45 -4.50001,-3.35 -2.1,-1.8 -0.5,-0.2 -0.4,0 -4.05,-0.2 -0.1,-0.05 -2.650002,-1 q -0.2,-0.15 -0.4,-0.15 -0.2,0 -0.4,0.15 -1.35,0.7 -2.75,1 l -4.05,0.25 -0.45,-0.05 -0.35,0.25 -2.2,1.75 -0.05,0.05 -4.5,3.35 q -0.1,-0.15 3.4,-4.5 l 1.799996,-2.2 0.25,-0.35 -0.05,-0.5 q -0.55,-1.55 0.2,-4.05 0.35,-1.35 1.1,-2.7 l 0.05,-0.45 -0.05,-0.3 q -0.75,-1.35 -1.2,-2.85 -0.7,-2.4 -0.2,-3.95 l 0.15,-0.5 -0.2,-0.4" />
    <path
       style="fill:#ffffff;stroke:none"
       inkscape:connector-curvature="0"
       id="path4974"
       d="m 100.22055,1009.6218 0.25,7.5 7.5,0.25 q 4.40001,0.3 4.30001,1.25 0.1,0.95 -4.30001,1.25 l -7.5,0.25 -0.25,7.5 q -0.300002,4.45 -1.250002,4.3 -0.95,0.15 -1.25,-4.3 -0.25,-3.15 -0.25,-7.5 l -7.5,-0.25 q -4.449996,-0.3 -4.299996,-1.25 -0.15,-0.95 4.299996,-1.25 l 7.5,-0.25 q 0,-4.3 0.25,-7.5 0.3,-4.4 1.25,-4.3 0.95,-0.1 1.250002,4.3" />
    <path
       style="fill:#e76916;stroke:none"
       inkscape:connector-curvature="0"
       id="path4976"
       d="m 223.02095,1004.8886 q -0.4,1.05 -1.2,1.75 -0.9,0.75 -1.95,0.9 -2.25,0.35 -3.9,2.05 l 0,0.05 q -1.95,1.9 -2.1,4.6 l -0.55,1.8 -1.3,1.4 -0.25,0.2 -0.1,0.15 q -2.15,2.1 -2.15,5.15 0,3.05 2.2,5.25 1.7,1.7 4,2.05 0.9,0.15 1.7,0.7 0.8,0.55 1.25,1.4 l 1.4,1.85 q 2.15,2.15 5.15,2.15 l 0.05,0 q 2.45,0.05 4.3,-1.3 0.85,-0.6 1.9,-0.7 l 2,0.25 q 1.45,0.6 3.1,0.65 l 0.1,0 q 2.95,-0.05 5.1,-2.15 2.15,-2.2 2.15,-5.25 l -0.05,-0.8 q -0.15,-0.95 0.15,-1.85 0.3,-0.9 1,-1.55 l 0.4,-0.4 0,-0.05 q 2.15,-2.15 2.15,-5.2 0,-2.8 -1.85,-4.85 -0.6,-0.7 -0.85,-1.5 -0.3,-0.9 -0.15,-1.75 l 0.1,-1.6 q 0,-3.05 -2.1,-5.15 -2.15,-2.15 -5.25,-2.2 l -0.05,0 -1.4,0.15 q -1.45,0.3 -2.7,-0.35 -1.5,-0.8 -3.25,-0.8 l -0.05,0 q -3.1,0.05 -5.2,2.2 -1.3,1.25 -1.8,2.75 m 21.55,31 q -3.35,3.35 -8,3.35 -2.5,-0.05 -4.65,-0.95 -2.9,2.1 -6.7,2.05 -4.65,0 -8,-3.35 -1.3,-1.3 -2.1,-2.8 -3.6,-0.55 -6.25,-3.2 -3.35,-3.35 -3.35,-8.05 0,-4.7 3.3,-8 l 1.05,-0.9 q 0.2,-4.2 3.25,-7.25 2.6,-2.65 6.1,-3.2 0.8,-2.35 2.75,-4.30001 3.3,-3.30002 8.05,-3.35002 2.8,0 5.15,1.25002 l 2.3,-0.25 q 4.75,0.05 8.05,3.35001 3.3,3.3 3.3,8 l -0.15,2.15 q 2.9,3.2 2.9,7.55 0,4.75 -3.35,8.05 l -0.4,0.4 0.1,1.4 q 0,4.7 -3.35,8.05 m -19.35,-26.2 -0.05,0.05 q 0.25,-0.75 0.95,-1.55 l 0.3,-0.3 q 1.3,-1.25 3.15,-1.25 l 0.05,0 q 1.1,-0.05 2,0.45 l 0.1,0.05 q 0.75,0.35 1.6,0.3 l 0.1,-0.05 0.95,-0.1 0.05,0 q 1.8,0 3.2,1.25 l 0.1,0.1 q 1.3,1.25 1.3,3.25 l 0,0.2 -0.05,0.7 0.05,1.25 0.65,1.1 0,0.1 q 1.15,1.2 1.15,2.9 l 0,0.05 q 0,1.9 -1.35,3.3 l -0.25,0.25 0,-0.05 -0.7,1.15 0,-0.05 q -0.2,0.55 -0.1,1.2 l 0.05,0.45 0,0.1 q -0.05,2.05 -1.5,3.4 -1.2,1.15 -2.8,1.25 l -0.25,0 -1.6,-0.25 -0.4,-0.1 -1.4,-0.25 q -0.75,0 -1.3,0.5 l -0.05,0 q -1.1,0.9 -2.6,0.8 l -0.1,0 q -1.9,0 -3.2,-1.3 l -0.25,-0.3 -0.35,-0.45 -0.25,-0.4 -0.85,-0.95 -0.05,-0.05 -1.15,-0.5 -0.25,-0.05 q -1.15,-0.25 -2.1,-1.1 l -0.3,-0.25 q -1.25,-1.35 -1.25,-3.2 l 0,-0.05 q -0.05,-1.65 1.25,-3.05 l 0.1,-0.15 0.05,-0.05 0.4,-0.3 0.7,-0.85 0.3,-1.15 0.05,-0.05 q 0.1,-1.5 1.15,-2.75 l 0.15,-0.1 q 1.1,-1.15 2.45,-1.25 l 1.3,-0.65 0.85,-1.25 m 12.2,4.45 q -0.45,-1.7 -0.1,-3.35 l 0,-0.25 q 0,-0.7 -0.45,-1.15 -0.5,-0.45 -1.15,-0.45 l -0.05,0 -0.55,0.05 q -2.45,0.4 -4.6,-0.75 l -0.65,-0.1 -0.05,0 q -0.7,0 -1.2,0.45 l -0.35,0.6 q -0.7,1.9 -2.25,3.25 -1.55,1.3 -3.55,1.65 -0.4,0.05 -0.75,0.4 -0.4,0.45 -0.45,1 -0.1,1.55 -0.85,3 -0.75,1.4 -2.05,2.35 l -0.05,0.05 q -0.45,0.5 -0.45,1.1 l 0,0.05 q 0,0.7 0.45,1.2 l 0.85,0.45 q 1.7,0.25 3.15,1.3 1.4,0.95 2.25,2.55 l 0.35,0.45 q 0.45,0.45 1.1,0.45 l 0.1,0 0.85,-0.2 q 1.6,-1.2 3.6,-1.4 2,-0.2 3.8,0.65 l 0.7,0.1 q 0.6,-0.05 1.05,-0.5 0.5,-0.45 0.5,-1.15 l 0,-0.05 0,-0.1 q -0.25,-1.7 0.3,-3.3 0.6,-1.6 1.75,-2.8 l 0.3,-0.3 q 0.5,-0.5 0.5,-1.2 l 0,-0.05 q 0,-0.55 -0.35,-0.95 -1.25,-1.35 -1.7,-3.05" />
    <path
       style="fill:#ff7419;stroke:none"
       inkscape:connector-curvature="0"
       id="path4978"
       d="m 223.02095,1004.8886 q 0.5,-1.5 1.8,-2.75 2.1,-2.15 5.2,-2.2 l 0.05,0 q 1.75,0 3.25,0.8 1.25,0.65 2.7,0.35 l 1.4,-0.15 0.05,0 q 3.1,0.05 5.25,2.2 2.1,2.1 2.1,5.15 l -0.1,1.6 q -0.15,0.85 0.15,1.75 0.25,0.8 0.85,1.5 1.85,2.05 1.85,4.85 0,3.05 -2.15,5.2 l 0,0.05 -0.4,0.4 q -0.7,0.65 -1,1.55 -0.3,0.9 -0.15,1.85 l 0.05,0.8 q 0,3.05 -2.15,5.25 -2.15,2.1 -5.1,2.15 l -0.1,0 q -1.65,-0.05 -3.1,-0.65 l -2,-0.25 q -1.05,0.1 -1.9,0.7 -1.85,1.35 -4.3,1.3 l -0.05,0 q -3,0 -5.15,-2.15 l -1.4,-1.85 q -0.45,-0.85 -1.25,-1.4 -0.8,-0.55 -1.7,-0.7 -2.3,-0.35 -4,-2.05 -2.2,-2.2 -2.2,-5.25 0,-3.05 2.15,-5.15 l 0.1,-0.15 0.25,-0.2 1.3,-1.4 0.55,-1.8 q 0.15,-2.7 2.1,-4.6 l 0,-0.05 q 1.65,-1.7 3.9,-2.05 1.05,-0.15 1.95,-0.9 0.8,-0.7 1.2,-1.75 m 2.2,4.8 -0.85,1.25 -1.3,0.65 q -1.35,0.1 -2.45,1.25 l -0.15,0.1 q -1.05,1.25 -1.15,2.75 l -0.05,0.05 -0.3,1.15 -0.7,0.85 -0.4,0.3 -0.05,0.05 -0.1,0.15 q -1.3,1.4 -1.25,3.05 l 0,0.05 q 0,1.85 1.25,3.2 l 0.3,0.25 q 0.95,0.85 2.1,1.1 l 0.25,0.05 1.15,0.5 0.05,0.05 0.85,0.95 0.25,0.4 0.35,0.45 0.25,0.3 q 1.3,1.3 3.2,1.3 l 0.1,0 q 1.5,0.1 2.6,-0.8 l 0.05,0 q 0.55,-0.5 1.3,-0.5 l 1.4,0.25 0.4,0.1 1.6,0.25 0.25,0 q 1.6,-0.1 2.8,-1.25 1.45,-1.35 1.5,-3.4 l 0,-0.1 -0.05,-0.45 q -0.1,-0.65 0.1,-1.2 l 0,0.05 0.7,-1.15 0,0.05 0.25,-0.25 q 1.35,-1.4 1.35,-3.3 l 0,-0.05 q 0,-1.7 -1.15,-2.9 l 0,-0.1 -0.65,-1.1 -0.05,-1.25 0.05,-0.7 0,-0.2 q 0,-2 -1.3,-3.25 l -0.1,-0.1 q -1.4,-1.25 -3.2,-1.25 l -0.05,0 -0.95,0.1 -0.1,0.05 q -0.85,0.05 -1.6,-0.3 l -0.1,-0.05 q -0.9,-0.5 -2,-0.45 l -0.05,0 q -1.85,0 -3.15,1.25 l -0.3,0.3 q -0.7,0.8 -0.95,1.55 l 0.05,-0.05" />
    <path
       style="fill:#ffcc00;stroke:none"
       inkscape:connector-curvature="0"
       id="path4980"
       d="m 229.97095,1016.2886 q -0.6,0.6 -1.45,0.65 -0.85,-0.05 -1.45,-0.65 l -7.25,-6.85 6.85,7.25 q 0.6,0.6 0.6,1.5 0,0.8 -0.6,1.4 -3.95,3.95 -6.85,7.25 l 7.25,-6.85 q 0.6,-0.6 1.45,-0.55 0.85,-0.05 1.45,0.55 l 7.25,6.85 -6.85,-7.25 q -0.6,-0.6 -0.6,-1.4 0,-0.9 0.6,-1.5 l 6.85,-7.25 q -3.3,2.9 -7.25,6.85 m 9.65,-6.55 -7.8,8.4 q 4.65,4.65 7.8,8.4 4.5,5.1 3.3,6 -0.9,1.2 -6,-3.3 -3.75,-3.15 -8.4,-7.8 -4.7,4.7 -8.4,7.8 -5.15,4.55 -6,3.3 -1.25,-0.85 3.3,-6 3.1,-3.7 7.8,-8.4 -4.7,-4.7 -7.8,-8.4 -4.55,-5.15 -3.3,-6 0.85,-1.25 6,3.3 3.7,3.1 8.4,7.8 4.65,-4.65 8.4,-7.8 5.1,-4.5 6,-3.3 1.2,0.9 -3.3,6 m 1.75,21.55 0.3,-0.3 -0.3,0 0,0.3 m 0.3,-26 -0.3,-0.3 0,0.3 0.3,0" />
    <path
       style="fill:#f0c000;stroke:none"
       inkscape:connector-curvature="0"
       id="path4982"
       d="m 229.97095,1016.2886 q 3.95,-3.95 7.25,-6.85 l -6.85,7.25 q -0.6,0.6 -0.6,1.5 0,0.8 0.6,1.4 l 6.85,7.25 -7.25,-6.85 q -0.6,-0.6 -1.45,-0.55 -0.85,-0.05 -1.45,0.55 l -7.25,6.85 q 2.9,-3.3 6.85,-7.25 0.6,-0.6 0.6,-1.4 0,-0.9 -0.6,-1.5 l -6.85,-7.25 7.25,6.85 q 0.6,0.6 1.45,0.65 0.85,-0.05 1.45,-0.65" />
    <path
       style="fill:#ecbc00;stroke:none"
       inkscape:connector-curvature="0"
       id="path4984"
       d="m 241.67095,1005.2886 -0.3,0 0,-0.3 0.3,0.3 m -0.3,26 0,-0.3 0.3,0 -0.3,0.3" />
    <path
       style="fill:#e76916;stroke:none"
       inkscape:connector-curvature="0"
       id="path4986"
       d="m 297.88963,996.10289 q 0.7,1.35 0.7,2.95 0,2.65001 -1.9,4.50001 -1.4,1.45 -3.25,1.8 l -1.25,0.1 q -2.25,0 -3.95,-1.35 l -0.6,-0.55 q -1.85,-1.85 -1.85,-4.50001 l 0,-0.35 q 0.15,-2.45 1.85,-4.2 1.9,-1.85 4.55,-1.85 2.65,0 4.5,1.85 l 1.2,1.6 m -8.7,-1 q -1.2,1.15 -1.15,2.9 l 0,0.05 q 0,1.80001 1.15,3.05001 l 0.05,0.05 q 1.25,1.15 3.05,1.15 l 0.15,0 q 1.65,0.05 2.85,-1.1 l 0,-0.05 q 1.2,-1.25 1.25,-2.95001 l 0,-0.15 -0.35,-1.65 -0.9,-1.3 q -1.3,-1.25 -3,-1.3 l -0.05,0 q -1.75,0.05 -3.05,1.3 m 14.65,5.75001 q 1.05,-0.7 2.5,-0.7 1.95,0.05 3.35,1.4 1.35,1.4 1.4,3.35 0,1.4 -0.65,2.55 l -0.7,0.85 q -1.45,1.4 -3.4,1.35 l -1.85,-0.35 -1.5,-1 q -0.85,-0.85 -1.2,-1.95 l -0.2,-1.45 q -0.05,-1.95 1.4,-3.4 l 0.85,-0.65 m 8.55,11.8 q 2.5,0.05 4.35,1.85 1.85,1.9 1.85,4.55 0,2.65 -1.85,4.5 l -1.9,1.35 -2.65,0.55 q -2.65,0 -4.5,-1.9 -1.5,-1.45 -1.8,-3.35 l -0.1,-1.15 q 0,-2.15 1.25,-3.8 l 0.65,-0.75 q 1.4,-1.4 3.3,-1.75 l 1.2,-0.1 0.2,0 m -2.6,18.15 q 0.7,1 0.7,2.4 -0.05,1.7 -1.25,2.9 -1.2,1.2 -2.9,1.25 -1.8,0 -2.95,-1.2 -1.25,-1.25 -1.2,-2.95 l 0.05,-0.7 q 0.2,-1.35 1.15,-2.25 0.7,-0.75 1.65,-1 l 1.3,-0.2 q 1.7,-0.05 2.95,1.2 l 0.5,0.55 m -12.5,7.4 0.05,0.85 q 0,2.15 -1.55,3.6 -1.45,1.55 -3.6,1.55 -2.15,0 -3.65,-1.55 -1,-0.95 -1.3,-2.25 l -0.2,-1.35 q 0,-2.15 1.5,-3.65 0.75,-0.75 1.65,-1.1 l 2,-0.4 q 2.15,0 3.6,1.5 l 0.15,0.15 q 1.1,1.15 1.35,2.65 m -14.6,1.2 q -2,1.5 -4.6,1.45 -3.25,0 -5.5,-2.2 -2.2,-2.25 -2.2,-5.5 0,-0.85 0.15,-1.65 0.4,-2.1 2,-3.75 1.05,-1.05 2.3,-1.6 1.5,-0.7 3.25,-0.7 2.55,0.05 4.55,1.55 l 0.85,0.75 q 1.55,1.55 2.05,3.55 l 0.25,1.85 q 0,3.25 -2.3,5.55 l -0.8,0.7 m -13.65,-14.8 -1.35,-1.05 q -1.9,-1.85 -1.9,-4.5 0,-2.65 1.9,-4.55 l 1.5,-1.1 q 1.35,-0.75 3,-0.75 1.45,0 2.65,0.55 1.05,0.45 1.9,1.3 0.85,0.85 1.3,1.9 l 0.4,1.1 0.15,1.55 -0.1,1.25 -0.55,1.6 -1.2,1.65 -1.9,1.35 -2.65,0.55 q -1.75,0 -3.15,-0.85 m 4.85,-17.5 q -0.5,-0.95 -0.45,-2.15 0,-1.95 1.35,-3.3 1.35,-1.35 3.3,-1.35 1.3,-0.05 2.35,0.6 l 0.95,0.7 q 1.35,1.4 1.35,3.35 l -0.25,1.5 q -0.35,1 -1.1,1.8 l -1.75,1.1 -1.55,0.25 q -1.95,0 -3.35,-1.35 l -0.85,-1.15 m 1.45,-4.55 q -0.95,0.9 -0.9,2.3 0,1.25 0.65,2.15 l 0.25,0.3 0.05,0 q 1,0.95 2.4,0.95 l 0.1,0 0.6,-0.05 q 0.9,-0.15 1.65,-0.85 l 0,-0.05 q 0.8,-0.85 0.95,-1.9 l 0.05,-0.45 0,-0.1 q -0.05,-1.3 -1,-2.3 l -0.1,-0.1 q -0.95,-0.9 -2.25,-0.95 l -0.05,0 q -1.4,0.05 -2.4,1 l 0,0.05 m 28.5,1.15 q -0.8,0.8 -0.75,1.95 l 0,0.05 q 0,1.2 0.75,2.05 l 0.05,0 q 0.5,0.45 1.15,0.7 l 0.9,0.1 0.1,0 q 1.1,0 1.9,-0.75 l 0,-0.05 0.6,-0.85 0.25,-1.1 0,-0.1 q -0.05,-1.15 -0.85,-2 -0.85,-0.85 -2,-0.85 l -0.05,0 q -1.15,0 -2.05,0.85 m -30.35,26.9 q -0.95,0.9 -1.2,2.15 -0.15,0.6 -0.15,1.25 l 0,0.05 q 0,2.1 1.35,3.6 l 0.05,0.05 q 1.5,1.35 3.6,1.35 l 0.15,0 q 1.95,0.05 3.35,-1.3 l 0,-0.05 0.65,-0.75 q 0.8,-1.25 0.85,-2.75 l 0,-0.15 -0.05,-0.8 q -0.25,-1.2 -1,-2.15 l -0.45,-0.5 q -1.5,-1.5 -3.5,-1.55 l -0.05,0 q -1.25,0.05 -2.25,0.55 -0.75,0.35 -1.35,0.95 l 0,0.05 m -3.65,-14.6 q -1.2,1.15 -1.15,2.9 l 0,0.05 q 0,1.8 1.15,3.05 l 0.05,0.05 0.3,0.25 q 1.15,0.9 2.75,0.9 l 0.15,0 1.75,-0.35 1.1,-0.75 0,-0.05 0.15,-0.15 q 0.8,-0.9 1.05,-2.05 l 0.05,-0.75 0,-0.15 -0.1,-0.8 q -0.2,-0.95 -0.8,-1.75 l -0.35,-0.4 -1.1,-0.8 q -0.9,-0.45 -1.9,-0.5 l -0.05,0 q -1.6,0.05 -2.85,1.15 l -0.2,0.15 m 38.45,-0.75 -0.2,0.25 q -1.05,1.1 -1,2.8 l 0,0.05 0.15,1.2 q 0.25,1.15 1.05,2.05 l 0.05,0.05 q 1.35,1.2 3.25,1.2 l 0.15,0 q 1.35,0.05 2.4,-0.65 l 0.6,-0.5 0,-0.05 q 1.3,-1.35 1.35,-3.15 l 0,-0.15 q -0.05,-1.8 -1.35,-3.1 -1.3,-1.3 -2.95,-1.4 l -0.2,0 -0.05,0 q -1.9,0.05 -3.25,1.35 l 0,0.05 m -17.75,21.35 -0.05,0.05 q -0.75,0.75 -0.8,1.95 l 0,0.1 q 0,1.35 0.85,2.3 l 0.05,0 q 0.95,0.85 2.2,0.85 l 0.1,0 q 1.2,0 2.1,-0.85 0.9,-0.95 0.9,-2.2 l 0,-0.1 q 0,-1.2 -0.9,-2.1 -0.95,-0.95 -2.2,-1 -1.3,0.05 -2.25,0.95 l 0,0.05 m 15.65,-5.2 q -1,0 -1.65,0.7 -0.75,0.7 -0.75,1.7 0,0.95 0.7,1.65 l 0.1,0.05 q 0.65,0.7 1.6,0.7 1,0 1.75,-0.7 0.65,-0.7 0.65,-1.7 0,-0.95 -0.65,-1.65 l -0.05,-0.1 q -0.75,-0.65 -1.7,-0.65" />
    <path
       style="fill:#ff7419;stroke:none"
       inkscape:connector-curvature="0"
       id="path4988"
       d="m 289.18963,995.10289 q 1.3,-1.25 3.05,-1.3 l 0.05,0 q 1.7,0.05 3,1.3 l 0.9,1.3 0.35,1.65 0,0.15 q -0.05,1.70001 -1.25,2.95001 l 0,0.05 q -1.2,1.15 -2.85,1.1 l -0.15,0 q -1.8,0 -3.05,-1.15 l -0.05,-0.05 q -1.15,-1.25 -1.15,-3.05001 l 0,-0.05 q -0.05,-1.75 1.15,-2.9 m 14.65,8.60001 q 0.9,-0.85 2.05,-0.85 l 0.05,0 q 1.15,0 2,0.85 0.8,0.85 0.85,2 l 0,0.1 -0.25,1.1 -0.6,0.85 0,0.05 q -0.8,0.75 -1.9,0.75 l -0.1,0 -0.9,-0.1 q -0.65,-0.25 -1.15,-0.7 l -0.05,0 q -0.75,-0.85 -0.75,-2.05 l 0,-0.05 q -0.05,-1.15 0.75,-1.95 m -28.5,-1.15 0,-0.05 q 1,-0.95 2.4,-1 l 0.05,0 q 1.3,0.05 2.25,0.95 l 0.1,0.1 q 0.95,1 1,2.3 l 0,0.1 -0.05,0.45 q -0.15,1.05 -0.95,1.9 l 0,0.05 q -0.75,0.7 -1.65,0.85 l -0.6,0.05 -0.1,0 q -1.4,0 -2.4,-0.95 l -0.05,0 -0.25,-0.3 q -0.65,-0.9 -0.65,-2.15 -0.05,-1.4 0.9,-2.3 m -5.5,13.45 0.2,-0.15 q 1.25,-1.1 2.85,-1.15 l 0.05,0 q 1,0.05 1.9,0.5 l 1.1,0.8 0.35,0.4 q 0.6,0.8 0.8,1.75 l 0.1,0.8 0,0.15 -0.05,0.75 q -0.25,1.15 -1.05,2.05 l -0.15,0.15 0,0.05 -1.1,0.75 -1.75,0.35 -0.15,0 q -1.6,0 -2.75,-0.9 l -0.3,-0.25 -0.05,-0.05 q -1.15,-1.25 -1.15,-3.05 l 0,-0.05 q -0.05,-1.75 1.15,-2.9 m 3.65,14.6 0,-0.05 q 0.6,-0.6 1.35,-0.95 1,-0.5 2.25,-0.55 l 0.05,0 q 2,0.05 3.5,1.55 l 0.45,0.5 q 0.75,0.95 1,2.15 l 0.05,0.8 0,0.15 q -0.05,1.5 -0.85,2.75 l -0.65,0.75 0,0.05 q -1.4,1.35 -3.35,1.3 l -0.15,0 q -2.1,0 -3.6,-1.35 l -0.05,-0.05 q -1.35,-1.5 -1.35,-3.6 l 0,-0.05 q 0,-0.65 0.15,-1.25 0.25,-1.25 1.2,-2.15 m 17.05,6 0,-0.05 q 0.95,-0.9 2.25,-0.95 1.25,0.05 2.2,1 0.9,0.9 0.9,2.1 l 0,0.1 q 0,1.25 -0.9,2.2 -0.9,0.85 -2.1,0.85 l -0.1,0 q -1.25,0 -2.2,-0.85 l -0.05,0 q -0.85,-0.95 -0.85,-2.3 l 0,-0.1 q 0.05,-1.2 0.8,-1.95 l 0.05,-0.05 m 17.75,-21.35 0,-0.05 q 1.35,-1.3 3.25,-1.35 l 0.05,0 0.2,0 q 1.65,0.1 2.95,1.4 1.3,1.3 1.35,3.1 l 0,0.15 q -0.05,1.8 -1.35,3.15 l 0,0.05 -0.6,0.5 q -1.05,0.7 -2.4,0.65 l -0.15,0 q -1.9,0 -3.25,-1.2 l -0.05,-0.05 q -0.8,-0.9 -1.05,-2.05 l -0.15,-1.2 0,-0.05 q -0.05,-1.7 1,-2.8 l 0.2,-0.25 m -2.1,16.15 q 0.95,0 1.7,0.65 l 0.05,0.1 q 0.65,0.7 0.65,1.65 0,1 -0.65,1.7 -0.75,0.7 -1.75,0.7 -0.95,0 -1.6,-0.7 l -0.1,-0.05 q -0.7,-0.7 -0.7,-1.65 0,-1 0.75,-1.7 0.65,-0.7 1.65,-0.7" />
    <path
       style="fill:#000000;fill-opacity:0.01176471;stroke:none"
       inkscape:connector-curvature="0"
       id="path4990"
       d="m 297.88963,996.10289 2.15,0.35 q 2.25,0.8 3.3,2.9 l 0.5,1.50001 -0.85,0.65 q -1.45,1.45 -1.4,3.4 l 0.2,1.45 q 0.35,1.1 1.2,1.95 l 1.5,1 1.85,0.35 q 1.95,0.05 3.4,-1.35 l 0.7,-0.85 q 1.15,0.6 1.8,1.9 0.7,1.6 0.15,3.3 l -0.2,0 -1.2,0.1 q -1.9,0.35 -3.3,1.75 l -0.65,0.75 q -1.25,1.65 -1.25,3.8 l 0.1,1.15 q 0.3,1.9 1.8,3.35 1.85,1.9 4.5,1.9 l 2.65,-0.55 -0.35,2.1 q -0.8,2.25 -3,3.25 l -1.7,0.55 -0.5,-0.55 q -1.25,-1.25 -2.95,-1.2 l -1.3,0.2 q -0.95,0.25 -1.65,1 -0.95,0.9 -1.15,2.25 l -0.05,0.7 q -0.05,1.7 1.2,2.95 l -0.15,0.45 q -0.55,1.4 -1.9,2.05 l -2.9,0.15 -1.15,-0.6 q -0.25,-1.5 -1.35,-2.65 l -0.15,-0.15 q -1.45,-1.5 -3.6,-1.5 l -2,0.4 q -0.9,0.35 -1.65,1.1 -1.5,1.5 -1.5,3.65 l 0.2,1.35 -2.95,-0.05 q -0.95,-0.35 -1.6,-0.95 l 0.8,-0.7 q 2.3,-2.3 2.3,-5.55 l -0.25,-1.85 q -0.5,-2 -2.05,-3.55 l -0.85,-0.75 q -2,-1.5 -4.55,-1.55 -1.75,0 -3.25,0.7 -1.25,0.55 -2.3,1.6 -1.6,1.65 -2,3.75 l -1.25,-1.85 q -1.05,-2.5 -0.25,-5.05 1.4,0.85 3.15,0.85 l 2.65,-0.55 1.9,-1.35 1.2,-1.65 0.55,-1.6 0.1,-1.25 -0.15,-1.55 -0.4,-1.1 q -0.45,-1.05 -1.3,-1.9 -0.85,-0.85 -1.9,-1.3 -1.2,-0.55 -2.65,-0.55 -1.65,0 -3,0.75 -0.15,-1.25 0.3,-2.55 0.8,-2.3 3.05,-3.3 0.65,-0.3 1.35,-0.45 l 0.85,1.15 q 1.4,1.35 3.35,1.35 l 1.55,-0.25 1.75,-1.1 q 0.75,-0.8 1.1,-1.8 l 0.25,-1.5 q 0,-1.95 -1.35,-3.35 l -0.95,-0.7 q 0.65,-1.45001 2.05,-2.15001 l 3.25,-0.1 0.05,0.05 0,0.35 q 0,2.65001 1.85,4.50001 l 0.6,0.55 q 1.7,1.35 3.95,1.35 l 1.25,-0.1 q 1.85,-0.35 3.25,-1.8 1.9,-1.85 1.9,-4.50001 0,-1.6 -0.7,-2.95" />
    <path
       style="fill:#ff7419;stroke:none"
       inkscape:connector-curvature="0"
       id="path5024"
       d="m 140.66134,1025.6481 q -9.2,-2.4 -9.2,-5.9 0,-3.5 9.2,-5.9 l 3,-0.8 q -2.4,-7.6 1.25,-11.25 3.65,-3.65001 11.15,-1.25 l 0.8,-2.90003 q 2.45,-9.24998 5.95,-9.24998 3.5,0 5.95,9.24998 l 0.7,2.90003 q 7.55,-2.35001 11.2,1.3 3.65,3.65 1.3,11.2 l 2.95,0.75 q 9.25,2.45 9.3,5.9 -0.05,3.55 -9.25,5.95 l -3.05,0.75 q 2.45,7.55 -1.25,11.15 -3.55,3.65 -11.2,1.3 l -0.7,3 q -2.35,9.15 -5.95,9.25 -3.5,-0.1 -6,-9.3 l -0.65,-2.95 q -7.6,2.4 -11.25,-1.25 -3.7,-3.6 -1.25,-11.15 l -3,-0.8 m 7.4,-14.4 1.2,1.95 q -5.15,2.7 -5.1,6.55 -0.05,3.65 5.15,6.45 l -1.15,1.95 q -3.5,6.1 -1.7,7.9 1.85,1.85 7.95,-1.65 l 1.9,-1.2 q 2.75,5.15 6.55,5.25 3.8,0 6.5,-5.3 l 1.85,1.25 q 6.25,3.55 8.05,1.65 1.85,-1.75 -1.7,-7.9 l -1.25,-1.95 q 5.3,-2.7 5.3,-6.5 -0.05,-3.85 -5.25,-6.55 l 1.2,-1.9 q 3.55,-6.15 1.7,-8 -1.85,-1.75 -8,1.7 -0.95,0.55 -1.95,1.2 -2.7,-5.25 -6.5,-5.25 -3.8,0 -6.55,5.25 l -1.95,-1.15 q -6.05,-3.55 -7.85,-1.75 -1.85,1.85 1.6,8" />
    <path
       style="fill:#e76916;stroke:none"
       inkscape:connector-curvature="0"
       id="path5026"
       d="m 148.06134,1011.2481 q -3.45,-6.15 -1.6,-8 1.8,-1.8 7.85,1.75 l 1.95,1.15 q 2.75,-5.25 6.55,-5.25 3.8,0 6.5,5.25 1,-0.65 1.95,-1.2 6.15,-3.45 8,-1.7 1.85,1.85 -1.7,8 l -1.2,1.9 q 5.2,2.7 5.25,6.55 0,3.8 -5.3,6.5 l 1.25,1.95 q 3.55,6.15 1.7,7.9 -1.8,1.9 -8.05,-1.65 l -1.85,-1.25 q -2.7,5.3 -6.5,5.3 -3.8,-0.1 -6.55,-5.25 l -1.9,1.2 q -6.1,3.5 -7.95,1.65 -1.8,-1.8 1.7,-7.9 l 1.15,-1.95 q -5.2,-2.8 -5.15,-6.45 -0.05,-3.85 5.1,-6.55 l -1.2,-1.95" />
    <path
       style="fill:#ffcc00;stroke:none"
       inkscape:connector-curvature="0"
       id="path5028"
       d="m 146.26134,1040.2481 q -8.55,6.95 -9.7,5.8 -1.15,-1.15 5.75,-9.75 l 3.05,-3.65 q -1,-3.2 0.4,-7.9 0.65,-2.55 1.95,-4.95 -1.35,-2.45 -2,-4.9 -1.35,-4.75 -0.25,-7.95 l -3.15,-3.75 q -6.9,-8.50001 -5.75,-9.65001 1.15,-1.15 9.65,5.65 l 3.85,3.15001 7.8,0.3 q 2.55,0.85 4.95,1.95 2.45,-1.25 5.1,-2 l 7.75,-0.25 q 1.85,-1.65 3.75,-3.15001 8.5,-6.8 9.65,-5.65 1.15,1.15 -5.7,9.70001 l -3.1,3.6 q 1.05,3.25 -0.25,7.85 -0.7,2.6 -2.1,5.1 1.45,2.45 2.05,4.95 1.35,4.75 0.35,7.85 l 3.1,3.8 q 6.8,8.5 5.65,9.65 -1.15,1.15 -9.7,-5.8 l -3.6,-3.1 q -3.25,1.15 -7.9,-0.1 -2.6,-0.8 -5.05,-2.15 -2.35,1.25 -5,2 l -7.85,0.35 -3.7,3 m 28.15,-34.15 -0.55,0.35 -0.7,-0.2 -5.75,0.25 q -2.1,0.6 -4,1.7 l -0.6,0.1 -0.55,-0.05 q -1.95,-1.05 -3.9,-1.6 l -5.8,-0.3 -0.65,0.05 -0.6,-0.3 -3.15,-2.65 q -6.2,-4.90001 -6.45,-4.85001 -0.1,0.4 4.85,6.45001 l 0.05,0.05 2.6,3.2 0.25,0.45 -0.05,0.65 q -0.8,2.4 0.3,5.9 0.55,1.95 1.5,3.9 l 0.15,0.55 -0.15,0.65 q -1,1.9 -1.5,3.8 l 0.05,0.05 q -1.1,3.5 -0.35,5.95 l -0.05,0.55 -0.25,0.65 -2.55,3.05 q -4.95,6.15 -4.85,6.55 l 6.45,-4.95 3.1,-2.6 q 0.25,-0.25 0.55,-0.25 l 0.6,0 6,-0.3 q 1.85,-0.55 3.8,-1.5 0.25,-0.25 0.6,-0.2 0.35,-0.05 0.6,0.2 1.9,1 4.05,1.65 l -0.05,-0.05 5.8,0.2 0.6,0 0.55,0.25 3.15,2.65 q 6.05,4.85 6.5,4.9 0,-0.5 -4.85,-6.55 l -2.65,-3.05 -0.2,-0.6 0,-0.6 q 0.75,-2.35 -0.25,-5.85 -0.6,-2 -1.6,-4 l -0.15,-0.55 q 0,-0.3 0.15,-0.65 1.05,-1.85 1.6,-4 1,-3.4 0.25,-5.85 -0.25,-0.25 0,-0.5 l 0.2,-0.6 2.6,-3.1 4.9,-6.50001 q -0.35,-0.05 -6.5,4.90001 l -3.1,2.6" />
    <path
       style="fill:#f0c000;stroke:none"
       inkscape:connector-curvature="0"
       id="path5030"
       d="m 174.41134,1006.0981 3.1,-2.6 q 6.15,-4.95001 6.5,-4.90001 l -4.9,6.50001 -2.6,3.1 -0.2,0.6 q -0.25,0.25 0,0.5 0.75,2.45 -0.25,5.85 -0.55,2.15 -1.6,4 -0.15,0.35 -0.15,0.65 l 0.15,0.55 q 1,2 1.6,4 1,3.5 0.25,5.85 l 0,0.6 0.2,0.6 2.65,3.05 q 4.85,6.05 4.85,6.55 -0.45,-0.05 -6.5,-4.9 l -3.15,-2.65 -0.55,-0.25 -0.6,0 -5.8,-0.2 0.05,0.05 q -2.15,-0.65 -4.05,-1.65 -0.25,-0.25 -0.6,-0.2 -0.35,-0.05 -0.6,0.2 -1.95,0.95 -3.8,1.5 l -6,0.3 -0.6,0 q -0.3,0 -0.55,0.25 l -3.1,2.6 -6.45,4.95 q -0.1,-0.4 4.85,-6.55 l 2.55,-3.05 0.25,-0.65 0.05,-0.55 q -0.75,-2.45 0.35,-5.95 l -0.05,-0.05 q 0.5,-1.9 1.5,-3.8 l 0.15,-0.65 -0.15,-0.55 q -0.95,-1.95 -1.5,-3.9 -1.1,-3.5 -0.3,-5.9 l 0.05,-0.65 -0.25,-0.45 -2.6,-3.2 -0.05,-0.05 q -4.95,-6.05001 -4.85,-6.45001 0.25,-0.05 6.45,4.85001 l 3.15,2.65 0.6,0.3 0.65,-0.05 5.8,0.3 q 1.95,0.55 3.9,1.6 l 0.55,0.05 0.6,-0.1 q 1.9,-1.1 4,-1.7 l 5.75,-0.25 0.7,0.2 0.55,-0.35" />
    <path
       style="fill:#ffffff;stroke:none"
       inkscape:connector-curvature="0"
       id="path5032"
       d="m 173.36134,1018.1481 q 0.7,0 1.15,0.45 l 0.05,0.05 q 0.4,0.5 0.4,1.1 l 0,0.1 q 0,0.6 -0.45,1.05 l -0.05,0.05 q -0.45,0.45 -1,0.5 l -0.05,0.05 -5.7,0.4 7.35,8.75 0.25,0.65 -0.3,0.7 q -0.3,0.3 -0.7,0.3 -0.35,0.05 -0.7,-0.2 l -8.7,-7.4 -0.45,5.65 0.05,0.05 q -0.1,0.7 -0.65,1.15 l -1.05,0.45 -0.05,-0.05 q -0.65,0.05 -1.05,-0.35 l -0.1,-0.1 q -0.45,-0.45 -0.5,-1 l -0.05,-0.05 -0.4,-5.7 -8.75,7.35 -0.7,0.2 -0.7,-0.3 -0.3,-0.7 q 0,-0.4 0.25,-0.65 l 7.4,-8.7 -5.7,-0.4 -0.05,-0.05 q -0.65,-0.15 -1,-0.5 l -0.1,-0.1 q -0.4,-0.4 -0.4,-1.1 0,-0.7 0.4,-1.1 l 0.1,-0.1 q 0.45,-0.45 1.1,-0.5 l 5.65,-0.45 -7.4,-8.7 q -0.25,-0.35 -0.2,-0.7 0,-0.4 0.3,-0.7 0.3,-0.3 0.7,-0.3 l 0.65,0.25 8.75,7.35 0.45,-5.65 q 0.05,-0.65 0.5,-1.1 l 0.05,-0.05 q 0.5,-0.5 1.15,-0.45 0.65,0.05 1.1,0.4 l 0.6,1.2 0.45,5.65 8.65,-7.35 q 0.3,-0.3 0.65,-0.25 l 0.75,0.25 q 0.3,0.3 0.25,0.75 l -0.2,0.7 -7.3,8.7 5.6,0.5" />
  </g>
</svg>
