<?xml version="1.0" encoding="UTF-8" standalone="no"?>
<!-- Created with Inkscape (http://www.inkscape.org/) -->

<svg
   xmlns:dc="http://purl.org/dc/elements/1.1/"
   xmlns:cc="http://creativecommons.org/ns#"
   xmlns:rdf="http://www.w3.org/1999/02/22-rdf-syntax-ns#"
   xmlns:svg="http://www.w3.org/2000/svg"
   xmlns="http://www.w3.org/2000/svg"
   xmlns:sodipodi="http://sodipodi.sourceforge.net/DTD/sodipodi-0.dtd"
   xmlns:inkscape="http://www.inkscape.org/namespaces/inkscape"
   width="60"
   height="60"
   viewBox="0 0 60.000001 60.000001"
   id="svg5896"
   version="1.1"
   inkscape:version="0.91 r13725"
   sodipodi:docname="mine.svg">
  <defs
     id="defs5898" />
  <sodipodi:namedview
     id="base"
     pagecolor="#ffffff"
     bordercolor="#666666"
     borderopacity="1.0"
     inkscape:pageopacity="0.0"
     inkscape:pageshadow="2"
     inkscape:zoom="10.116667"
     inkscape:cx="30"
     inkscape:cy="30"
     inkscape:document-units="px"
     inkscape:current-layer="layer1"
     showgrid="false"
     units="px"
     borderlayer="true"
     inkscape:window-width="1301"
     inkscape:window-height="744"
     inkscape:window-x="65"
     inkscape:window-y="24"
     inkscape:window-maximized="1" />
  <metadata
     id="metadata5901">
    <rdf:RDF>
      <cc:Work
         rdf:about="">
        <dc:format>image/svg+xml</dc:format>
        <dc:type
           rdf:resource="http://purl.org/dc/dcmitype/StillImage" />
        <dc:title></dc:title>
      </cc:Work>
    </rdf:RDF>
  </metadata>
  <g
     inkscape:label="Layer 1"
     inkscape:groupmode="layer"
     id="layer1"
     transform="translate(0,-992.36216)">
    <path
       style="fill:#657a7b;stroke:none"
       inkscape:connector-curvature="0"
       id="path3736"
       d="m 21.594715,1031.2128 q -3.55,-3.55 -3.55,-8.5 0,-5 3.55,-8.5 3.45,-3.5 8.45,-3.5 4.9,0 8.45,3.5 l 0.05,0 q 3.5,3.5 3.5,8.5 0,4.95 -3.5,8.5 -3.55,3.5 -8.5,3.5 -5,0 -8.45,-3.55 l 0,0.05 m 15.5,-15.6 q -2.95,-2.9 -7.05,-2.9 -4.15,0 -7.05,2.9 -2.95,2.95 -2.95,7.1 0,4.1 2.95,7.05 2.9,2.95 7.05,2.95 4.1,0 7.05,-2.95 2.95,-2.95 2.95,-7.05 0,-4.15 -2.95,-7.1" />
    <path
       style="fill:#89a4a6;stroke:none"
       inkscape:connector-curvature="0"
       id="path3738"
       d="m 37.094715,1015.6128 q 2.95,2.95 2.95,7.1 0,4.1 -2.95,7.05 -2.95,2.95 -7.05,2.95 -4.15,0 -7.05,-2.95 -2.95,-2.95 -2.95,-7.05 0,-4.15 2.95,-7.1 2.9,-2.9 7.05,-2.9 4.1,0 7.05,2.9 m -7.05,1.1 q 2.45,0 4.25,1.8 1.75,1.75 1.75,4.2 0,2.45 -1.75,4.25 -1.8,1.75 -4.25,1.75 -2.45,0 -4.15,-1.75 -1.85,-1.8 -1.85,-4.25 0,-2.45 1.8,-4.2 l 0.05,-0.05 q 1.7,-1.75 4.15,-1.75 m 3.05,3.5 q 0,-0.6 -0.45,-1.05 -0.45,-0.45 -1.05,-0.45 -0.65,0 -1.05,0.45 -0.45,0.45 -0.45,1.05 0,0.6 0.45,1.05 0.4,0.45 1.05,0.45 0.6,0 1.05,-0.45 0.45,-0.45 0.45,-1.05 m 2.6,-3.15 q -2.35,-2.35 -5.65,-2.35 -3.3,0 -5.6,2.35 -2.4,2.35 -2.4,5.65 0,3.25 2.4,5.65 2.3,2.35 5.6,2.35 3.25,0 5.65,-2.35 2.35,-2.4 2.35,-5.65 0,-3.3 -2.35,-5.65" />
    <path
       style="fill:#799193;stroke:none"
       inkscape:connector-curvature="0"
       id="path3740"
       d="m 30.044715,1016.7128 q -2.45,0 -4.15,1.75 l -0.05,0.05 q -1.8,1.75 -1.8,4.2 0,2.45 1.85,4.25 1.7,1.75 4.15,1.75 2.45,0 4.25,-1.75 1.75,-1.8 1.75,-4.25 0,-2.45 -1.75,-4.2 -1.8,-1.8 -4.25,-1.8 m 5.65,0.35 q 2.35,2.35 2.35,5.65 0,3.25 -2.35,5.65 -2.4,2.35 -5.65,2.35 -3.3,0 -5.6,-2.35 -2.4,-2.4 -2.4,-5.65 0,-3.3 2.4,-5.65 2.3,-2.35 5.6,-2.35 3.3,0 5.65,2.35" />
    <path
       style="fill:#697e80;stroke:none"
       inkscape:connector-curvature="0"
       id="path3742"
       d="m 33.094715,1020.2128 q 0,0.6 -0.45,1.05 -0.45,0.45 -1.05,0.45 -0.65,0 -1.05,-0.45 -0.45,-0.45 -0.45,-1.05 0,-0.6 0.45,-1.05 0.4,-0.45 1.05,-0.45 0.6,0 1.05,0.45 0.45,0.45 0.45,1.05" />
  </g>
</svg>
