<?xml version="1.0" encoding="UTF-8" standalone="no"?>
<!-- Created with Inkscape (http://www.inkscape.org/) -->

<svg
   xmlns:dc="http://purl.org/dc/elements/1.1/"
   xmlns:cc="http://creativecommons.org/ns#"
   xmlns:rdf="http://www.w3.org/1999/02/22-rdf-syntax-ns#"
   xmlns:svg="http://www.w3.org/2000/svg"
   xmlns="http://www.w3.org/2000/svg"
   xmlns:sodipodi="http://sodipodi.sourceforge.net/DTD/sodipodi-0.dtd"
   xmlns:inkscape="http://www.inkscape.org/namespaces/inkscape"
   width="3.500217mm"
   height="3.500217mm"
   viewBox="0 0 3.500217 3.500217"
   version="1.1"
   id="svg7319"
   inkscape:version="0.92.3 (unknown)"
   sodipodi:docname="obstacle.svg">
  <defs
     id="defs7313" />
  <sodipodi:namedview
     id="base"
     pagecolor="#ffffff"
     bordercolor="#666666"
     borderopacity="1.0"
     inkscape:pageopacity="0.0"
     inkscape:pageshadow="2"
     inkscape:zoom="0.35"
     inkscape:cx="95.18601"
     inkscape:cy="75.18601"
     inkscape:document-units="mm"
     inkscape:current-layer="layer1"
     showgrid="false"
     inkscape:window-width="1299"
     inkscape:window-height="713"
     inkscape:window-x="67"
     inkscape:window-y="27"
     inkscape:window-maximized="1" />
  <metadata
     id="metadata7316">
    <rdf:RDF>
      <cc:Work
         rdf:about="">
        <dc:format>image/svg+xml</dc:format>
        <dc:type
           rdf:resource="http://purl.org/dc/dcmitype/StillImage" />
        <dc:title></dc:title>
      </cc:Work>
    </rdf:RDF>
  </metadata>
  <g
     inkscape:label="Layer 1"
     inkscape:groupmode="layer"
     id="layer1"
     transform="translate(-80.648701,-165.22608)">
    <g
       id="g2620"
       transform="matrix(0.26458333,0,0,0.26458333,43.336389,134.70419)">
      <g
         transform="scale(0.26458333)"
         id="use2618">
        <path
           style="fill:#e59c52;stroke:none"
           inkscape:connector-curvature="0"
           id="path7333"
           d="m 583,439.9 q 0,-3.9 -3.9,-3.9 h -42.2 q -3.9,0 -3.9,3.9 v 42.25 q 0,3.85 3.9,3.85 h 42.2 q 3.9,0 3.9,-3.85 V 439.9 m -3.9,-1.9 q 1.9,0 1.9,1.9 v 42.25 q 0,1.85 -1.9,1.85 h -42.2 q -1.9,0 -1.9,-1.85 V 439.9 q 0,-1.9 1.9,-1.9 h 42.2 m -6.1,8 h -6 l -24,24 v 6 h 6 l 24,-24 z" />
        <path
           style="fill:#cd8c4a;stroke:none"
           inkscape:connector-curvature="0"
           id="path7335"
           d="m 581,439.9 q 0,-1.9 -1.9,-1.9 h -42.2 q -1.9,0 -1.9,1.9 v 42.25 q 0,1.85 1.9,1.85 h 42.2 q 1.9,0 1.9,-1.85 V 439.9 m -6,4.1 v 34 h -34 v -34 z" />
        <path
           style="fill:#aa733c;stroke:none"
           inkscape:connector-curvature="0"
           id="path7337"
           d="m 575,478 v -34 h -34 v 34 h 34 m -8,-32 h 6 v 6 l -24,24 h -6 v -6 z" />
      </g>
    </g>
  </g>
</svg>
