<?xml version="1.0" encoding="UTF-8" standalone="no"?>
<svg
   xmlns:dc="http://purl.org/dc/elements/1.1/"
   xmlns:cc="http://creativecommons.org/ns#"
   xmlns:rdf="http://www.w3.org/1999/02/22-rdf-syntax-ns#"
   xmlns:svg="http://www.w3.org/2000/svg"
   xmlns="http://www.w3.org/2000/svg"
   version="1.1"
   id="svg10162"
   viewBox="0 0 60.000001 60.000001"
   height="60"
   width="60">
  <defs
     id="defs10164" />
  <metadata
     id="metadata10167">
    <rdf:RDF>
      <cc:Work
         rdf:about="">
        <dc:format>image/svg+xml</dc:format>
        <dc:type
           rdf:resource="http://purl.org/dc/dcmitype/StillImage" />
        <dc:title></dc:title>
      </cc:Work>
    </rdf:RDF>
  </metadata>
  <g
     transform="translate(0,-992.36214)"
     id="layer1">
    <g
       transform="matrix(0.57804006,0,0,0.56143064,10.56275,451.73605)"
       id="g15734">
      <path
         style="fill:#b89300;stroke:none"
         id="path8772"
         d="m 26.888839,1003.9765 q 0.6,-0.55 1.35,-0.55 l 13.3,0 q 0.7,0 1.3,0.45 0.55,0.45 0.7,1.2 l -0.25,1.3 -4.3,7.95 2.85,1.25 q 0.55,0.2 0.9,0.75 l 0.05,0.1 0.25,1.05 -0.4,1.1 -10,13.4 q -0.4,0.55 -1.1,0.75 l -1.3,-0.1 q -0.65,-0.3 -0.95,-0.95 -0.35,-0.65 -0.2,-1.3 l 1.65,-7.55 -4.5,-1.95 -0.9,-0.8 q -0.35,-0.6 -0.3,-1.2 l 1.2,-13.6 q 0.05,-0.8 0.65,-1.3 m 11.95,12.45 -2.65,-1.15 5.35,-9.85 -13.3,0 -0.95,11 -0.25,2.6 6,2.6 -2,9.15 10,-13.4 -2.2,-0.95" />
      <path
         style="fill:#ffcc00;stroke:none"
         id="path8774"
         d="m 38.838839,1016.4265 2.2,0.95 -10,13.4 2,-9.15 -6,-2.6 0.25,-2.6 11.55,0" />
      <path
         style="fill:#ffd941;stroke:none"
         id="path8776"
         d="m 38.838839,1016.4265 -11.55,0 0.95,-11 13.3,0 -5.35,9.85 2.65,1.15" />
    </g>
  </g>
</svg>
