<?xml version="1.0" encoding="UTF-8" standalone="no"?>
<svg
   xmlns:dc="http://purl.org/dc/elements/1.1/"
   xmlns:cc="http://creativecommons.org/ns#"
   xmlns:rdf="http://www.w3.org/1999/02/22-rdf-syntax-ns#"
   xmlns:svg="http://www.w3.org/2000/svg"
   xmlns="http://www.w3.org/2000/svg"
   version="1.1"
   id="svg5913"
   viewBox="0 0 60.000001 60.000001"
   height="60"
   width="60">
  <defs
     id="defs5915" />
  <metadata
     id="metadata5918">
    <rdf:RDF>
      <cc:Work
         rdf:about="">
        <dc:format>image/svg+xml</dc:format>
        <dc:type
           rdf:resource="http://purl.org/dc/dcmitype/StillImage" />
        <dc:title></dc:title>
      </cc:Work>
    </rdf:RDF>
  </metadata>
  <g
     transform="translate(0,-992.36216)"
     id="layer1">
    <path
       d="m 32.638953,1013.4667 q 0,-0.8 -0.65,-1.35 -0.55,-0.6 -1.4,-0.6 -0.85,0 -1.45,0.6 -0.6,0.55 -0.6,1.35 0,2.25 0.55,3.85 l 0.05,0.25 q 0.6,1.75 1.45,1.75 0.85,0 1.4,-1.75 l 0.1,-0.3 q 0.55,-1.6 0.55,-3.8 m 0.8,14.7 q -1.2,6.45 -2.85,6.45 -1.7,0 -2.9,-6.45 l -0.7,-5.05 -0.15,-2.05 q -0.45,0.35 -0.8,0.3 -0.8,-0.2 -0.75,-2.5 l 0.3,-2.6 -1.65,0.5 q -2.85,0.8 -3.3,-0.05 -0.5,-0.85 1.55,-2.75 2.05,-1.8 5.3,-3.6 2.7,-1.45 6.1,0 3.25,1.8 5.3,3.65 2.05,1.95 1.55,2.75 -0.5,0.85 -3.3,0.05 l -1.55,-0.45 0.25,2.45 q 0.05,2.25 -0.7,2.45 l -0.75,-0.2 q -0.3,3.85 -0.95,7.1"
       id="path4724"
       style="fill:#ffcc00;stroke:none" />
    <path
       d="m 32.638953,1013.4667 q 0,2.2 -0.55,3.8 l -0.1,0.3 q -0.55,1.75 -1.4,1.75 -0.85,0 -1.45,-1.75 l -0.05,-0.25 q -0.55,-1.6 -0.55,-3.85 0,-0.8 0.6,-1.35 0.6,-0.6 1.45,-0.6 0.85,0 1.4,0.6 0.65,0.55 0.65,1.35"
       id="path4726"
       style="fill:#ffffff;stroke:none" />
  </g>
</svg>
